<?xml version="1.0" standalone="no"?>
<!DOCTYPE svg PUBLIC "-//W3C//DTD SVG 20010904//EN"
 "http://www.w3.org/TR/2001/REC-SVG-20010904/DTD/svg10.dtd">
<svg version="1.0" xmlns="http://www.w3.org/2000/svg"
 width="16.000000pt" height="16.000000pt" viewBox="0 0 16.000000 16.000000"
 preserveAspectRatio="xMidYMid meet">
<metadata>
Created by potrace 1.11, written by Peter Selinger 2001-2013
</metadata>
<g transform="translate(0.000000,16.000000) scale(0.003653,-0.003653)"
fill="#000000" stroke="none">
<path d="M2100 4370 c-107 -13 -120 -16 -330 -80 -52 -16 -111 -32 -130 -36
-48 -9 -273 -84 -280 -92 -3 -4 -12 -8 -20 -10 -52 -11 -276 -147 -387 -235
-43 -34 -113 -88 -156 -121 -87 -66 -327 -299 -327 -318 0 -3 -31 -38 -69 -77
-117 -118 -212 -267 -241 -376 -8 -27 -33 -104 -58 -170 -42 -113 -45 -132
-67 -339 -38 -373 -32 -540 28 -776 27 -103 90 -285 130 -371 45 -96 77 -169
77 -174 0 -3 20 -39 45 -79 25 -41 49 -86 55 -101 6 -16 14 -23 22 -19 7 5 9
2 6 -8 -4 -9 6 -28 23 -47 16 -18 29 -39 29 -47 0 -8 5 -14 10 -14 6 0 10 5
10 12 0 7 11 -3 25 -22 14 -19 21 -36 16 -40 -12 -7 47 -74 71 -83 10 -4 18
-13 18 -20 0 -23 39 -52 52 -39 8 8 14 7 24 -3 22 -22 17 -41 -5 -21 -13 12
-21 14 -26 6 -4 -7 15 -32 47 -61 51 -47 78 -60 78 -39 0 6 -7 10 -15 10 -8 0
-15 5 -15 10 0 14 5 13 39 -8 32 -20 29 -47 -5 -36 -16 5 -16 4 -4 -5 8 -6 27
-11 43 -11 15 0 27 -4 27 -10 0 -5 7 -10 15 -10 8 0 15 5 15 12 0 6 3 8 7 5 3
-4 0 -18 -7 -32 -10 -20 -11 -28 -2 -37 9 -9 12 -9 12 0 0 7 4 12 9 12 5 0 8
-7 7 -16 0 -9 11 -25 26 -37 23 -17 32 -19 52 -9 29 13 43 0 22 -20 -12 -13
-11 -16 5 -26 26 -17 37 -15 14 2 -18 13 -18 14 3 20 24 8 62 -12 56 -29 -3
-6 10 -16 28 -23 27 -10 30 -14 18 -22 -8 -5 -10 -10 -4 -10 6 0 39 -18 72
-40 34 -22 62 -37 62 -34 0 4 7 1 16 -7 18 -15 123 -59 142 -59 7 0 20 -4 30
-9 16 -8 30 -12 132 -41 25 -7 52 -15 60 -18 8 -3 38 -11 65 -18 28 -7 79 -20
115 -29 36 -9 90 -22 120 -29 103 -24 608 -6 618 22 1 5 11 8 20 5 10 -2 35 0
57 6 117 28 171 45 183 57 7 8 26 14 42 14 16 0 54 11 84 25 30 14 58 25 63
25 15 0 217 86 271 116 28 15 52 32 52 36 0 4 6 8 13 8 7 0 17 8 24 19 6 10
45 40 85 67 40 27 88 62 107 79 55 50 75 67 146 130 149 131 275 282 275 328
0 8 -6 19 -13 25 -9 8 -30 -6 -82 -54 -92 -85 -224 -183 -255 -190 -14 -3 -59
-16 -100 -29 -41 -13 -102 -27 -135 -30 -33 -3 -80 -9 -105 -12 -70 -10 -91
-8 -165 16 -39 13 -105 26 -147 31 -68 7 -83 12 -120 43 -51 41 -167 159 -200
202 -12 17 -39 48 -60 70 -21 22 -38 46 -38 53 0 6 -4 12 -9 12 -6 0 -36 39
-67 86 -87 129 -159 196 -252 235 -113 47 -243 75 -227 49 3 -5 -3 -10 -14
-10 -12 0 -21 4 -21 9 0 6 -129 11 -317 13 -327 4 -324 3 -498 50 -44 11 -107
53 -125 82 -7 11 -12 42 -11 68 1 58 40 118 76 118 12 0 27 6 34 13 10 13 82
50 254 132 104 49 157 99 157 149 0 36 -33 116 -48 116 -5 0 -17 8 -28 18 -23
21 -71 38 -144 52 -63 13 -368 45 -515 55 -82 6 -246 36 -327 61 -9 3 -20 18
-23 35 -9 39 13 71 100 146 69 59 152 144 171 173 9 15 57 53 119 96 17 11 64
37 105 57 41 21 100 51 130 67 30 16 63 30 72 30 16 0 157 52 189 69 34 19
166 70 209 81 47 13 198 7 255 -10 17 -5 50 -14 75 -21 44 -13 346 -161 364
-180 6 -5 16 -9 23 -9 7 0 22 -9 33 -20 11 -11 27 -20 35 -20 8 0 15 -4 15
-10 0 -5 6 -10 13 -10 6 -1 44 -26 82 -56 78 -61 245 -177 308 -213 89 -51 89
-51 76 -68 -14 -16 -193 -143 -202 -143 -10 0 -244 -159 -256 -174 -19 -22 -9
-52 14 -48 11 2 22 7 25 10 3 4 22 16 44 27 110 57 182 103 243 156 85 73 402
254 497 284 71 22 165 68 159 78 -3 5 3 7 13 3 11 -3 39 0 64 8 26 7 56 10 70
5 14 -4 36 -7 50 -8 20 -1 22 1 10 9 -8 5 -25 10 -37 10 -13 0 -23 5 -23 10 0
14 -33 13 -48 -2 -9 -9 -12 -9 -12 0 0 7 7 15 15 18 17 7 21 44 5 44 -5 0 -10
9 -10 20 0 15 -7 20 -27 21 -17 1 -21 3 -10 6 9 2 17 10 17 17 0 6 9 18 20 26
11 8 20 20 20 27 0 8 20 13 57 15 50 3 59 6 70 28 12 24 13 25 13 3 0 -16 6
-23 19 -23 14 0 21 -8 23 -27 3 -24 8 -28 33 -28 17 0 42 -7 55 -16 17 -11 35
-13 58 -8 18 3 35 2 38 -3 3 -5 16 -2 30 6 30 21 38 20 90 -6 49 -24 62 -21
42 11 -8 13 -19 19 -29 16 -11 -4 -19 2 -23 17 -4 13 -10 18 -12 12 -5 -13
-41 -7 -61 8 -7 5 -17 7 -23 3 -5 -3 -13 1 -16 9 -3 9 -16 16 -28 16 -32 0
-47 13 -36 30 6 8 10 20 10 25 0 6 -4 4 -9 -4 -5 -8 -16 -11 -25 -8 -13 5 -14
11 -5 31 7 14 9 31 7 38 -3 7 -5 15 -4 18 0 3 -9 18 -21 34 -29 36 -29 48 0
41 14 -4 30 1 44 15 12 11 24 20 25 20 2 0 4 -25 3 -57 0 -40 4 -58 14 -61 10
-3 12 0 8 12 -7 17 1 20 20 8 6 -4 10 -20 9 -35 -2 -15 2 -27 8 -27 6 0 3 -7
-7 -14 -17 -13 -16 -15 13 -21 24 -5 32 -13 37 -37 4 -22 10 -28 24 -25 10 3
26 -1 36 -8 25 -18 89 -29 110 -20 36 15 74 15 79 0 10 -24 -4 -35 -31 -25
-20 7 -25 6 -25 -5 0 -8 8 -15 18 -16 15 0 14 -2 -3 -9 -14 -7 -8 -8 20 -4 44
7 41 7 73 5 22 -1 22 -1 2 -21 -13 -13 -20 -33 -20 -60 0 -27 -5 -43 -15 -46
-8 -4 -15 -12 -15 -20 0 -8 -4 -14 -9 -14 -4 0 -7 12 -7 28 3 47 -43 118 -59
92 -3 -5 -14 -10 -23 -10 -12 0 -13 3 -4 12 7 7 12 16 12 20 0 14 -27 9 -40
-7 -9 -10 -9 -15 -1 -15 6 0 11 -7 11 -16 0 -13 7 -15 30 -11 23 5 28 3 23 -8
-3 -11 -1 -13 10 -9 20 7 32 -13 17 -31 -6 -8 -9 -18 -7 -22 3 -5 -1 -17 -9
-28 -14 -18 -14 -18 -14 4 0 14 -7 25 -20 28 -12 3 -19 13 -17 26 1 15 -4 22
-18 24 -11 1 -14 0 -7 -3 22 -10 13 -26 -12 -20 -14 3 -28 2 -31 -4 -3 -5 3
-10 14 -10 26 0 37 -18 16 -26 -14 -6 -14 -9 1 -31 9 -14 12 -23 7 -20 -5 3
-17 -3 -26 -14 -9 -10 -23 -19 -30 -19 -8 0 -18 -10 -23 -21 -9 -20 -11 -20
-26 -5 -9 9 -31 19 -48 22 -17 4 -33 11 -36 15 -10 17 -25 9 -19 -11 5 -16 2
-20 -14 -20 -15 0 -20 6 -18 22 2 17 -5 23 -33 30 -19 5 -41 9 -47 10 -7 1
-13 7 -13 15 0 7 -8 13 -17 13 -15 0 -16 -2 -3 -10 8 -5 11 -10 7 -10 -10 0
57 -70 67 -70 3 0 14 -8 25 -17 10 -10 56 -43 101 -73 46 -30 104 -74 129 -96
42 -38 190 -134 206 -134 4 0 35 -27 68 -60 72 -72 95 -75 116 -15 14 41 13
46 -21 285 -6 41 -21 95 -34 120 -15 29 -25 72 -29 120 -9 102 -42 244 -71
307 -13 28 -24 55 -24 59 0 8 -95 217 -110 244 -5 8 -26 44 -46 80 -104 181
-199 296 -321 390 -244 188 -295 224 -373 266 -30 16 -63 38 -72 50 -9 11 -43
33 -75 48 -32 15 -73 36 -91 46 -18 11 -36 19 -40 18 -4 -1 -20 4 -35 10 -16
7 -32 12 -37 12 -5 0 -15 6 -23 14 -8 8 -32 17 -54 19 -23 3 -50 10 -61 16
-11 6 -36 13 -54 15 -18 3 -76 14 -128 25 -80 18 -125 21 -300 20 -113 -1
-234 -5 -270 -9z m351 -150 c5 0 12 7 15 15 4 8 10 15 15 15 4 0 6 -7 3 -15
-5 -11 1 -15 25 -15 22 0 29 4 25 14 -3 8 -13 17 -22 21 -13 5 -14 8 -3 15 20
12 39 2 54 -30 13 -25 12 -29 -11 -46 -13 -11 -46 -21 -73 -24 l-48 -5 -6 47
c-4 26 -3 53 2 60 5 9 9 2 11 -19 2 -18 8 -33 13 -33z m-51 14 c0 -8 -4 -12
-10 -9 -5 3 -10 10 -10 16 0 5 5 9 10 9 6 0 10 -7 10 -16z m228 4 c7 10 11 10
22 -3 11 -13 8 -15 -24 -15 -34 0 -44 8 -29 23 4 4 10 2 15 -5 6 -11 10 -10
16 0z m142 -14 c0 -8 -5 -12 -10 -9 -6 4 -8 11 -5 16 9 14 15 11 15 -7z m-760
-80 c8 0 33 -4 55 -7 27 -4 35 -3 25 3 -13 8 -12 10 3 10 9 0 17 -4 17 -10 0
-5 11 -10 25 -10 14 0 25 -5 25 -11 0 -5 4 -8 9 -5 7 4 8 -20 2 -44 0 -3 -22
-7 -48 -8 -67 -2 -123 -12 -123 -22 0 -13 -90 -22 -105 -10 -9 8 -15 8 -20 0
-7 -11 34 -31 48 -23 4 2 7 0 7 -5 0 -6 -17 -12 -37 -15 -21 -3 -51 -8 -68
-11 -25 -5 -25 -4 -5 2 14 4 25 13 24 20 -1 7 -2 18 -2 25 -3 19 -82 17 -82
-3 0 -15 -51 -22 -65 -8 -4 4 -13 4 -20 2 -17 -7 -9 34 12 57 8 9 13 22 11 29
-2 8 11 16 30 20 19 5 32 4 32 -2 0 -6 7 -5 15 2 13 11 18 10 30 -6 14 -18 14
-18 15 4 0 18 4 22 19 17 12 -4 23 0 28 10 8 13 15 14 36 6 19 -7 27 -7 27 0
0 6 9 8 20 4 16 -5 20 -2 20 17 l1 23 12 -25 c7 -14 19 -25 27 -26z m510 -8
c0 -3 -4 -8 -10 -11 -5 -3 -10 -1 -10 4 0 6 5 11 10 11 6 0 10 -2 10 -4z
m-245 -56 c-3 -5 -13 -10 -21 -10 -8 0 -14 5 -14 10 0 6 9 10 21 10 11 0 17
-4 14 -10z m-630 -79 c-3 -6 -11 -8 -17 -5 -6 4 -5 9 3 15 16 10 23 4 14 -10z
m420 9 c-3 -5 -11 -10 -16 -10 -6 0 -7 5 -4 10 3 6 11 10 16 10 6 0 7 -4 4
-10z m-715 -60 c13 -9 13 -10 0 -9 -8 0 -24 4 -35 9 l-20 9 20 0 c11 0 27 -4
35 -9z m-35 -48 c11 -2 26 -9 33 -15 8 -7 12 -5 12 7 0 11 9 16 31 16 20 0 28
-4 23 -12 -5 -7 -1 -9 13 -6 16 4 19 1 16 -12 -5 -20 21 -30 78 -30 21 0 45
-8 59 -20 14 -13 37 -20 62 -20 21 0 38 -4 38 -9 0 -6 15 -8 33 -5 45 6 81
-24 68 -59 -5 -13 -19 -27 -32 -30 -16 -4 -20 -11 -16 -26 4 -16 0 -21 -14
-21 -10 0 -30 -12 -44 -27 -14 -15 -25 -22 -25 -15 0 7 -4 10 -10 7 -5 -3 -10
-15 -10 -26 0 -10 -4 -19 -10 -19 -5 0 -10 9 -10 21 0 11 -4 17 -10 14 -5 -3
-25 -3 -45 1 -25 4 -35 11 -35 25 0 11 7 19 17 19 14 0 12 5 -10 25 -15 14
-27 32 -27 40 0 8 -7 15 -15 15 -10 0 -15 -10 -15 -31 0 -26 -3 -29 -20 -25
-67 19 -63 15 -38 36 l23 19 -26 1 c-15 0 -29 6 -32 14 -3 8 -14 13 -24 12
-10 -2 -30 0 -45 5 -18 5 -28 4 -28 -3 0 -6 -6 -6 -15 2 -16 14 -21 50 -6 50
5 0 12 -6 14 -12 4 -8 6 -7 6 3 1 9 -6 19 -14 23 -8 3 -15 14 -15 24 0 11 -7
26 -16 33 -15 12 -14 14 7 20 13 4 31 5 39 2 8 -3 24 -8 35 -11z m282 -28 c-3
-3 -12 -4 -19 -1 -8 3 -5 6 6 6 11 1 17 -2 13 -5z m-234 -154 c-6 -22 -6 -22
-27 -14 -20 7 -9 34 14 34 13 0 17 -5 13 -20z m2287 -260 c8 -5 11 -10 5 -10
-5 0 -17 5 -25 10 -8 5 -10 10 -5 10 6 0 17 -5 25 -10z m-248 -145 c0 -5 -5
-11 -11 -13 -6 -2 -11 4 -11 13 0 9 5 15 11 13 6 -2 11 -8 11 -13z m243 5 c4
-6 -7 -10 -27 -10 -25 0 -29 3 -18 10 19 13 37 13 45 0z m45 -55 c0 -15 -2
-17 -9 -6 -5 7 -14 10 -20 7 -6 -4 -11 -1 -11 8 0 9 8 14 20 13 13 -1 20 -8
20 -22z m45 4 c5 -15 10 -18 18 -10 15 15 27 14 27 -4 0 -8 -6 -15 -14 -15 -8
0 -17 -6 -20 -12 -6 -17 -36 19 -36 44 0 25 17 23 25 -3z m265 -9 c0 -5 -10
-10 -22 -10 -19 0 -20 2 -8 10 19 13 30 13 30 0z m-283 -65 c-4 -8 -12 -15
-19 -14 -10 0 -10 2 0 6 6 2 12 12 12 21 0 8 3 13 6 9 4 -3 4 -13 1 -22z m323
-1 c0 -8 -7 -14 -15 -14 -15 0 -21 21 -9 33 10 9 24 -2 24 -19z m-440 -10 c0
-8 -5 -12 -10 -9 -6 4 -8 11 -5 16 9 14 15 11 15 -7z m444 -23 c3 -5 -8 -11
-24 -13 -29 -4 -37 1 -23 15 9 10 41 9 47 -2z m-14 -67 c0 -2 -7 -4 -15 -4 -8
0 -15 4 -15 10 0 5 7 7 15 4 8 -4 15 -8 15 -10z m50 -36 c-1 -31 -1 -32 -15
-14 -11 14 -12 23 -4 33 17 19 19 17 19 -19z m30 -84 c0 -10 -6 -14 -15 -10
-8 3 -15 1 -15 -5 0 -6 -5 -7 -11 -4 -6 5 -4 12 8 21 24 18 33 17 33 -2z
m-3755 -18 c30 -14 70 -36 88 -50 19 -14 36 -26 40 -26 3 0 42 -22 86 -50 44
-27 85 -50 91 -50 27 0 2 -33 -72 -96 -46 -38 -118 -103 -162 -145 -70 -67
-79 -80 -83 -120 -4 -39 -2 -48 26 -76 17 -18 40 -33 51 -33 12 0 31 -6 43
-14 12 -8 69 -21 127 -31 58 -9 127 -21 153 -26 26 -5 69 -9 95 -9 26 0 63 -5
82 -11 79 -24 138 -37 188 -43 29 -3 75 -18 102 -32 42 -22 50 -31 50 -54 0
-24 -11 -35 -62 -70 -56 -37 -108 -59 -333 -137 -38 -13 -74 -28 -79 -34 -6
-5 -15 -9 -22 -9 -23 0 -155 -83 -184 -116 -55 -64 -67 -181 -26 -262 26 -51
79 -112 98 -112 6 0 41 -18 77 -39 53 -31 89 -43 176 -60 61 -11 180 -35 265
-52 85 -17 196 -34 245 -39 306 -30 442 -79 535 -190 l41 -49 -7 -158 c-7
-173 2 -233 52 -336 40 -84 155 -211 219 -241 18 -9 38 -22 44 -30 7 -8 23
-17 36 -20 16 -4 22 -11 19 -20 -3 -9 -12 -12 -21 -9 -9 4 -14 2 -11 -3 4 -5
-15 -10 -40 -10 -26 -1 -125 -4 -221 -6 -170 -5 -261 3 -336 30 -16 6 -68 23
-115 37 -83 26 -275 106 -348 145 -21 11 -53 26 -72 35 -19 8 -62 35 -95 60
-33 25 -63 45 -68 45 -4 0 -20 11 -35 25 -15 14 -31 25 -37 25 -6 0 -24 12
-41 28 -16 15 -33 28 -38 29 -12 2 -65 48 -134 115 -85 83 -242 289 -272 356
-5 13 -14 20 -20 17 -5 -3 -10 3 -10 14 0 12 -4 21 -10 21 -5 0 -10 10 -10 23
0 13 -11 34 -25 47 -26 25 -34 46 -12 35 6 -4 5 0 -3 7 -23 20 -50 77 -50 103
0 13 -6 36 -14 52 -8 15 -19 39 -24 53 -5 14 -17 43 -25 65 -9 22 -19 51 -23
65 -4 14 -12 29 -19 35 -7 5 -18 35 -24 65 -59 281 -85 474 -84 619 2 170 34
400 74 534 25 82 84 207 99 207 5 0 34 -11 65 -24z m3005 -16 c0 -5 -4 -10
-10 -10 -5 0 -10 5 -10 10 0 6 5 10 10 10 6 0 10 -4 10 -10z m380 -310 c0 -5
-5 -10 -11 -10 -5 0 -7 5 -4 10 3 6 8 10 11 10 2 0 4 -4 4 -10z m493 -74 c0
-10 4 -15 11 -13 9 4 11 -2 9 -17 -4 -18 -10 -21 -39 -18 -19 2 -34 8 -34 13
0 5 5 9 10 9 6 0 10 8 10 18 0 10 3 22 7 26 11 11 28 0 26 -18z m7 -75 c0 -5
-6 -11 -12 -14 -9 -3 -4 -11 12 -25 20 -16 23 -23 13 -33 -7 -7 -13 -21 -13
-32 0 -16 -2 -17 -15 -3 -8 8 -15 20 -15 26 0 7 -8 9 -20 5 -23 -7 -50 10 -50
31 0 8 10 14 22 14 17 0 19 3 10 12 -21 21 -13 28 28 28 22 0 40 -4 40 -9z
m-115 -41 c3 -5 2 -10 -4 -10 -5 0 -13 5 -16 10 -3 6 -2 10 4 10 5 0 13 -4 16
-10z m-2733 -312 c-7 -7 -12 -25 -12 -40 0 -18 -5 -28 -14 -28 -8 0 -21 -3
-30 -6 -26 -10 3 50 33 68 32 20 38 21 23 6z m18 -58 c0 -5 -5 -10 -11 -10 -5
0 -7 5 -4 10 3 6 8 10 11 10 2 0 4 -4 4 -10z m-32 -34 c-10 -7 -18 -19 -18
-26 0 -7 -3 -11 -6 -7 -11 11 7 47 24 47 16 -1 16 -2 0 -14z m-60 -7 c-2 -6
-8 -10 -13 -10 -5 0 -11 4 -13 10 -2 6 4 11 13 11 9 0 15 -5 13 -11z m-333
-499 c3 -5 -3 -10 -14 -10 -12 0 -21 5 -21 10 0 6 6 10 14 10 8 0 18 -4 21
-10z m549 -169 c-2 -1 -16 4 -32 12 -17 8 -36 11 -43 7 -13 -9 -39 -2 -39 10
0 4 14 7 31 8 17 0 34 3 37 6 5 6 50 -36 46 -43z m66 19 c0 -5 -2 -10 -4 -10
-3 0 -8 5 -11 10 -3 6 -1 10 4 10 6 0 11 -4 11 -10z m85 -21 c11 -16 1 -19
-13 -3 -7 8 -8 14 -3 14 5 0 13 -5 16 -11z m-102 -53 c38 -6 53 -4 67 9 16 15
18 14 22 -3 4 -15 12 -18 36 -14 49 7 96 -14 109 -48 7 -18 24 -35 44 -44 l34
-14 -27 -1 c-16 -1 -28 -5 -28 -11 0 -16 -28 -12 -37 5 -5 8 -35 22 -68 30
-33 9 -68 23 -78 33 -12 11 -21 13 -25 5 -4 -6 -15 -7 -27 -2 -11 4 -15 8 -10
9 6 0 -4 7 -22 15 -22 9 -42 11 -69 5 -42 -10 -74 2 -74 26 0 10 7 13 24 8 14
-3 33 -1 43 4 10 6 22 7 28 2 5 -4 32 -11 58 -14z m460 -213 c-7 -2 -19 -2
-25 0 -7 3 -2 5 12 5 14 0 19 -2 13 -5z m22 -43 c3 -5 1 -10 -4 -10 -6 0 -11
5 -11 10 0 6 2 10 4 10 3 0 8 -4 11 -10z m-95 -20 c11 -21 4 -25 -19 -11 -7 5
-10 14 -7 20 10 15 14 14 26 -9z m-1385 -220 c3 -5 1 -10 -4 -10 -6 0 -11 5
-11 10 0 6 2 10 4 10 3 0 8 -4 11 -10z m25 -30 c0 -5 -2 -10 -4 -10 -3 0 -8 5
-11 10 -3 6 -1 10 4 10 6 0 11 -4 11 -10z m17 -42 c-3 -8 -6 -5 -6 6 -1 11 2
17 5 13 3 -3 4 -12 1 -19z m98 -118 c3 -5 2 -10 -4 -10 -5 0 -13 5 -16 10 -3
6 -2 10 4 10 5 0 13 -4 16 -10z m210 -170 c9 -15 27 -12 19 3 -5 9 -4 9 5 1 6
-6 9 -18 5 -27 -5 -15 -8 -15 -30 0 -24 15 -32 33 -15 33 6 0 13 -4 16 -10z"/>
<path d="M1954 4126 c22 -18 46 -21 46 -6 0 6 -6 10 -14 10 -8 0 -23 3 -33 6
-16 5 -16 4 1 -10z"/>
<path d="M1894 4098 c-8 -13 20 -19 46 -10 24 9 23 9 -8 14 -18 3 -35 1 -38
-4z"/>
<path d="M2080 4100 c0 -5 12 -10 28 -10 21 0 24 2 12 10 -20 13 -40 13 -40 0z"/>
<path d="M1725 4090 c-3 -5 1 -10 10 -10 9 0 13 5 10 10 -3 6 -8 10 -10 10 -2
0 -7 -4 -10 -10z"/>
<path d="M1920 4060 c0 -6 7 -10 15 -10 8 0 15 2 15 4 0 2 -7 6 -15 10 -8 3
-15 1 -15 -4z"/>
<path d="M1345 3850 c-3 -5 -1 -10 4 -10 6 0 11 5 11 10 0 6 -2 10 -4 10 -3 0
-8 -4 -11 -10z"/>
<path d="M3499 2919 c-11 -7 -10 -11 6 -23 22 -16 35 -12 35 9 0 17 -23 25
-41 14z"/>
<path d="M3710 2845 c0 -8 2 -15 4 -15 2 0 6 7 10 15 3 8 1 15 -4 15 -6 0 -10
-7 -10 -15z"/>
<path d="M3611 2664 c13 -16 29 -19 29 -5 0 5 -9 11 -21 14 -16 4 -18 3 -8 -9z"/>
<path d="M1036 367 c3 -10 9 -15 12 -12 3 3 0 11 -7 18 -10 9 -11 8 -5 -6z"/>
</g>
</svg>
